# Blender v2.80 (sub 75) OBJ File: 'wonsz.blend'
# www.blender.org
mtllib lava_plane.mtl
o Plane
v -1.064212 -4.744538 -0.389043
v 1.064212 -4.744538 -0.389043
v -1.729087 -2.541912 -2.996171
v 1.729087 -2.541912 -2.996171
v -1.658201 -8.203728 -1.293656
v 1.736375 -8.203728 -1.293656
v -1.223629 -11.721548 -0.741931
v 1.145455 -11.721548 -0.741931
v -1.957987 -18.779703 0.412171
v 1.271934 -18.779703 0.412171
v -2.634833 -24.419472 0.743734
v 2.354033 -24.419472 0.743734
v -5.690625 -29.147419 2.542152
v 5.207198 -29.147419 2.542152
vt 0.120185 0.162891
vt 0.120185 0.237802
vt 0.000062 0.261203
vt 0.000062 0.139490
vt 0.246027 0.141985
vt 0.246027 0.261459
vt 0.371352 0.157280
vt 0.371352 0.240661
vt 0.623067 0.131434
vt 0.623067 0.245113
vt 0.821904 0.107612
vt 0.821904 0.283198
vt 0.999938 0.000062
vt 0.999938 0.383616
vn 0.0000 0.7639 0.6454
vn 0.0000 -0.2530 0.9675
vn 0.0000 0.1549 0.9879
vn 0.0000 0.1614 0.9869
vn 0.0000 0.0587 0.9983
vn 0.0000 0.3555 0.9347
usemtl None
s off
f 1/1/1 2/2/1 4/3/1 3/4/1
f 2/2/2 1/1/2 5/5/2 6/6/2
f 6/6/3 5/5/3 7/7/3 8/8/3
f 8/8/4 7/7/4 9/9/4 10/10/4
f 10/10/5 9/9/5 11/11/5 12/12/5
f 12/12/6 11/11/6 13/13/6 14/14/6
